<svg viewBox="0 0 1200 675" xmlns="http://www.w3.org/2000/svg">
  <defs>
    <pattern id="lines" width="1200" height="43" patternUnits="userSpaceOnUse">
      <line x1="0" y1="42.5" x2="1200" y2="42.5" stroke="#16202B" stroke-opacity="0.05" stroke-width="1"/>
    </pattern>
  </defs>
  <rect width="1200" height="675" fill="#ECEAE2"/>
  <rect width="1200" height="675" fill="url(#lines)"/>
  <rect x="0" y="0" width="1200" height="10" fill="#1F6F54"/>

  <text x="60" y="80" font-family="Georgia, serif" font-weight="900" font-size="34" fill="#16202B">The 50/30/20 Budget</text>
  <text x="60" y="112" font-family="IBM Plex Mono, monospace" font-size="15" letter-spacing="2" fill="#1F6F54">NEEDS · WANTS · SAVINGS</text>

  <path d="M 430 337 L 430.00 567.00 A 230 230 0 0 0 430.00 107.00 Z" fill="#1F6F54" stroke="#ECEAE2" stroke-width="4"/>
  <path d="M 430 337 L 211.26 265.93 A 230 230 0 0 0 430.00 567.00 Z" fill="#C99A2E" stroke="#ECEAE2" stroke-width="4"/>
  <path d="M 430 337 L 430.00 107.00 A 230 230 0 0 0 211.26 265.93 Z" fill="#B4472A" stroke="#ECEAE2" stroke-width="4"/>
  <circle cx="430" cy="337" r="132" fill="#ECEAE2" />
  <text x="617.0" y="337.0" font-family="Georgia, serif" font-weight="700" font-size="26" fill="#F5F3EC" text-anchor="middle" dominant-baseline="middle">50%</text><text x="278.7" y="446.9" font-family="Georgia, serif" font-weight="700" font-size="26" fill="#F5F3EC" text-anchor="middle" dominant-baseline="middle">30%</text><text x="320.1" y="185.7" font-family="Georgia, serif" font-weight="700" font-size="26" fill="#F5F3EC" text-anchor="middle" dominant-baseline="middle">20%</text>

  <text x="430" y="331" font-family="Georgia, serif" font-weight="700" font-size="22" fill="#16202B" text-anchor="middle">YOUR</text>
  <text x="430" y="357" font-family="Georgia, serif" font-weight="700" font-size="22" fill="#16202B" text-anchor="middle">PAYCHECK</text>

  
    <rect x="700" y="546" width="18" height="18" fill="#1F6F54" />
    <text x="728" y="561" font-family="IBM Plex Mono, monospace" font-size="17" fill="#16202B">NEEDS — 50%</text>
    <rect x="700" y="580" width="18" height="18" fill="#C99A2E" />
    <text x="728" y="595" font-family="IBM Plex Mono, monospace" font-size="17" fill="#16202B">WANTS — 30%</text>
    <rect x="700" y="614" width="18" height="18" fill="#B4472A" />
    <text x="728" y="629" font-family="IBM Plex Mono, monospace" font-size="17" fill="#16202B">SAVINGS &amp; DEBT — 20%</text>

  <text x="700" y="500" font-family="IBM Plex Mono, monospace" font-size="12" letter-spacing="2" fill="#16202B" fill-opacity="0.5">A SIMPLE BUDGET BREAKDOWN</text>

  <text x="60" y="640" font-family="monospace" font-size="16" letter-spacing="2" fill="#1F6F54">BETTERLIFE.VERCEL.APP</text>
</svg>