<svg viewBox="0 0 1200 675" xmlns="http://www.w3.org/2000/svg">
  <defs>
    <pattern id="lines" width="1200" height="43" patternUnits="userSpaceOnUse">
      <line x1="0" y1="42.5" x2="1200" y2="42.5" stroke="#16202B" stroke-opacity="0.05" stroke-width="1"/>
    </pattern>
  </defs>
  <rect width="1200" height="675" fill="#ECEAE2"/>
  <rect width="1200" height="675" fill="url(#lines)"/>
  <rect x="0" y="0" width="1200" height="10" fill="#B4472A"/>
  <text x="60" y="80" font-family="Georgia, serif" font-weight="900" font-size="34" fill="#16202B">The Tracker</text>
  <text x="60" y="112" font-family="IBM Plex Mono, monospace" font-size="15" letter-spacing="2" fill="#B4472A">PRINTABLES</text>
  
  <text x="60" y="152" font-family="Georgia, serif" font-style="italic" font-size="18" fill="#16202B" fill-opacity="0.7">A page you can print and actually see every day</text>
  <rect x="90" y="185" width="1020" height="420" fill="#F5F3EC" stroke="#16202B" stroke-opacity="0.5" stroke-width="2"/>
  <text x="120" y="230" font-family="Georgia, serif" font-weight="700" font-size="22" fill="#16202B">MONTHLY BUDGET TRACKER</text>
  <line x1="120" y1="245" x2="990" y2="245" stroke="#C99A2E" stroke-width="3"/>
  
      <text x="120" y="260" font-family="IBM Plex Mono, monospace" font-size="14" fill="#16202B">NEEDS</text>
      <rect x="360" y="244" width="560" height="22" fill="none" stroke="#16202B" stroke-opacity="0.4"/>
      <text x="120" y="320" font-family="IBM Plex Mono, monospace" font-size="14" fill="#16202B">WANTS</text>
      <rect x="360" y="304" width="560" height="22" fill="none" stroke="#16202B" stroke-opacity="0.4"/>
      <text x="120" y="380" font-family="IBM Plex Mono, monospace" font-size="14" fill="#16202B">SAVINGS &amp; DEBT</text>
      <rect x="360" y="364" width="560" height="22" fill="none" stroke="#16202B" stroke-opacity="0.4"/>
  <text x="120" y="460" font-family="IBM Plex Mono, monospace" font-size="13" letter-spacing="1" fill="#16202B" fill-opacity="0.6">WEEKLY CHECK-IN</text>
  <rect x="120" y="480" width="26" height="26" fill="none" stroke="#1F6F54" stroke-width="2"/><rect x="180" y="480" width="26" height="26" fill="none" stroke="#1F6F54" stroke-width="2"/><rect x="240" y="480" width="26" height="26" fill="none" stroke="#1F6F54" stroke-width="2"/><rect x="300" y="480" width="26" height="26" fill="none" stroke="#1F6F54" stroke-width="2"/>
  <text x="500" y="498" font-family="Georgia, serif" font-size="14" fill="#16202B" fill-opacity="0.6">five minutes, once a week</text>
  <text x="60" y="640" font-family="monospace" font-size="16" letter-spacing="2" fill="#B4472A">BETTERLIFE.VERCEL.APP</text>
</svg>