<svg viewBox="0 0 1200 675" xmlns="http://www.w3.org/2000/svg">
  <defs>
    <pattern id="lines" width="1200" height="43" patternUnits="userSpaceOnUse">
      <line x1="0" y1="42.5" x2="1200" y2="42.5" stroke="#16202B" stroke-opacity="0.05" stroke-width="1"/>
    </pattern>
  </defs>
  <rect width="1200" height="675" fill="#ECEAE2"/>
  <rect width="1200" height="675" fill="url(#lines)"/>
  <rect x="0" y="0" width="1200" height="10" fill="#C99A2E"/>
  <text x="60" y="80" font-family="Georgia, serif" font-weight="900" font-size="34" fill="#16202B">The Hidden Leaks</text>
  <text x="60" y="112" font-family="IBM Plex Mono, monospace" font-size="15" letter-spacing="2" fill="#C99A2E">MONEY MINDSET</text>
  
  <text x="60" y="152" font-family="Georgia, serif" font-style="italic" font-size="18" fill="#16202B" fill-opacity="0.7">Where the small leaks quietly add up</text>
  
    <text x="60" y="180" font-family="IBM Plex Mono, monospace" font-size="14" fill="#16202B">CONVENIENCE SPENDING</text>
    <rect x="60" y="190" width="560" height="22" fill="#F5F3EC" stroke="#D8D3C4"/>
    <rect x="60" y="190" width="504" height="22" fill="#B4472A"/>

    <text x="60" y="258" font-family="IBM Plex Mono, monospace" font-size="14" fill="#16202B">EMOTIONAL SPENDING</text>
    <rect x="60" y="268" width="560" height="22" fill="#F5F3EC" stroke="#D8D3C4"/>
    <rect x="60" y="268" width="380.8" height="22" fill="#C99A2E"/>

    <text x="60" y="336" font-family="IBM Plex Mono, monospace" font-size="14" fill="#16202B">FORGOTTEN SUBSCRIPTIONS</text>
    <rect x="60" y="346" width="560" height="22" fill="#F5F3EC" stroke="#D8D3C4"/>
    <rect x="60" y="346" width="308" height="22" fill="#1F6F54"/>

    <text x="60" y="414" font-family="IBM Plex Mono, monospace" font-size="14" fill="#16202B">IDLE SAVINGS</text>
    <rect x="60" y="424" width="560" height="22" fill="#F5F3EC" stroke="#D8D3C4"/>
    <rect x="60" y="424" width="224" height="22" fill="#C99A2E"/>

    <text x="60" y="492" font-family="IBM Plex Mono, monospace" font-size="14" fill="#16202B">DUPLICATE PURCHASES</text>
    <rect x="60" y="502" width="560" height="22" fill="#F5F3EC" stroke="#D8D3C4"/>
    <rect x="60" y="502" width="140" height="22" fill="#B4472A"/>
  <g transform="translate(760,190)">
    <rect x="0" y="0" width="380" height="380" fill="#F5F3EC" stroke="#C99A2E" stroke-dasharray="6 5" transform="rotate(0.6 190 190)"/>
    <text x="30" y="45" font-family="IBM Plex Mono, monospace" font-size="12" letter-spacing="2" fill="#B4472A">FIVE LEAKS TO CHECK</text>
    <text x="30" y="90" font-family="Georgia, serif" font-size="17" fill="#16202B">01. Subscriptions you forgot</text>
    <text x="30" y="125" font-family="Georgia, serif" font-size="17" fill="#16202B">02. Convenience over cooking</text>
    <text x="30" y="160" font-family="Georgia, serif" font-size="17" fill="#16202B">03. Spending after a hard day</text>
    <text x="30" y="195" font-family="Georgia, serif" font-size="17" fill="#16202B">04. Savings earning nothing</text>
    <text x="30" y="230" font-family="Georgia, serif" font-size="17" fill="#16202B">05. Buying it again, and again</text>
  </g>
  <text x="60" y="640" font-family="monospace" font-size="16" letter-spacing="2" fill="#C99A2E">BETTERLIFE.VERCEL.APP</text>
</svg>